<?xml version="1.0" encoding="utf-8"?>
<!-- Generator: Adobe Illustrator 28.3.0, SVG Export Plug-In . SVG Version: 6.00 Build 0)  -->
<svg version="1.1" id="Layer_1" xmlns="http://www.w3.org/2000/svg" xmlns:xlink="http://www.w3.org/1999/xlink" x="0px" y="0px"
	 viewBox="0 0 266 73" style="enable-background:new 0 0 266 73;" xml:space="preserve">
<style type="text/css">
	.st0{fill:#FFFFFF;}
	.st1{font-family:'Montserrat-Bold';}
	.st2{font-size:40.5781px;}
	.st3{fill:#5CE1E6;}
</style>
<g>
	<text transform="matrix(1 0 0 1 72.6149 58.3389)"><tspan x="0" y="0" class="st0 st1 st2">Nex</tspan><tspan x="82.5" y="0" class="st3 st1 st2">Bank</tspan></text>
	<path class="st0" d="M36.5,0.4c-7.1,0-14.1,2.1-20,6.1S6,16.1,3.2,22.7c-2.7,6.6-3.4,13.8-2.1,20.8C2.6,50.5,6,57,11,62
		c5,5,11.5,8.5,18.5,9.9c7,1.4,14.2,0.7,20.8-2.1c6.6-2.7,12.2-7.4,16.2-13.3c4-5.9,6.1-12.9,6.1-20h-18c0,3.6-1.1,7.1-3,10
		c-2,3-4.8,5.3-8.1,6.6c-3.3,1.4-6.9,1.7-10.4,1c-3.5-0.7-6.7-2.4-9.2-4.9c-2.5-2.5-4.2-5.7-4.9-9.2c-0.7-3.5-0.3-7.1,1-10.4
		c1.4-3.3,3.7-6.1,6.6-8.1c3-2,6.5-3,10-3V0.4z"/>
	<path class="st3" d="M36.5,0.4c-4.7,0-9.4,0.9-13.8,2.7C18.4,5,14.4,7.6,11,11c-3.3,3.3-6,7.3-7.8,11.7c-1.8,4.4-2.7,9.1-2.7,13.8
		h18c0-2.4,0.5-4.7,1.4-6.9c0.9-2.2,2.2-4.2,3.9-5.9c1.7-1.7,3.7-3,5.9-3.9c2.2-0.9,4.5-1.4,6.9-1.4V0.4z"/>
	<circle class="st3" cx="36.5" cy="36.5" r="11.3"/>
	<path class="st0" d="M47.8,36.5c0-1.5-0.3-2.9-0.9-4.3c-0.6-1.4-1.4-2.6-2.4-3.7c-1-1-2.3-1.9-3.7-2.4s-2.8-0.9-4.3-0.9
		c-1.5,0-2.9,0.3-4.3,0.9c-1.4,0.6-2.6,1.4-3.7,2.4c-1,1-1.9,2.3-2.4,3.7c-0.6,1.4-0.9,2.8-0.9,4.3h11.3H47.8z"/>
</g>
</svg>
